<?xml version="1.0" standalone="no"?>
<!DOCTYPE svg PUBLIC "-//W3C//DTD SVG 20010904//EN"
 "http://www.w3.org/TR/2001/REC-SVG-20010904/DTD/svg10.dtd">
<svg version="1.0" xmlns="http://www.w3.org/2000/svg"
  viewBox="0 0 128.000000 128.000000"
 preserveAspectRatio="xMidYMid meet">

<g transform="translate(0.000000,128.000000) scale(0.100000,-0.100000)"
 >
<path d="M640 1120 l0 -160 -67 0 -68 0 88 -87 87 -88 87 88 88 87 -68 0 -67
0 0 160 0 160 -40 0 -40 0 0 -160z"/>
<path d="M375 1221 c-63 -29 -185 -115 -185 -129 0 -5 11 -19 25 -32 l25 -24
28 22 c53 43 108 76 160 98 66 27 65 26 57 63 -8 39 -30 40 -110 2z"/>
<path d="M52 887 c-30 -71 -52 -165 -52 -219 0 -26 3 -28 39 -28 l38 0 7 61
c4 34 19 91 32 128 14 36 28 73 30 81 4 11 -6 21 -30 32 l-35 17 -29 -72z"/>
<path d="M1100 865 l0 -65 -150 0 -150 0 0 -40 0 -40 150 0 150 0 0 -67 0 -68
90 90 90 90 -82 82 c-46 46 -86 83 -90 83 -5 0 -8 -29 -8 -65z"/>
<path d="M1193 562 c-7 -43 -23 -105 -37 -137 -14 -31 -26 -61 -26 -65 0 -4
12 -13 28 -21 15 -7 30 -15 33 -17 20 -10 88 208 89 286 0 30 -2 32 -38 32
l-38 0 -11 -78z"/>
<path d="M43 480 c-22 -9 -22 -11 -8 -50 23 -67 72 -151 114 -200 l40 -45 26
26 27 26 -45 61 c-24 33 -57 90 -73 126 -29 67 -38 73 -81 56z"/>
<path d="M985 199 c-27 -21 -83 -53 -122 -71 -75 -34 -80 -39 -63 -82 9 -25
10 -25 50 -11 65 23 151 72 198 113 l44 37 -29 27 -28 26 -50 -39z"/>
<path d="M338 116 l-17 -34 60 -26 c62 -29 173 -56 227 -56 31 0 32 2 32 40 0
38 -1 40 -32 40 -48 0 -152 27 -198 50 -51 26 -54 26 -72 -14z"/>
</g>
</svg>
