<?xml version="1.0" encoding="UTF-8" standalone="no"?> <svg xmlns="http://www.w3.org/2000/svg" width="36" height="48" viewBox="0 0 36 48">
  <defs>
    
  </defs>
  <title>6 Edit</title>
  <g>
    <path class="a" d="M34.54,5.7,30.29,1.46a5,5,0,0,0-7.07,0L5,19.71a5,5,0,0,0-1.24,2L.1,33.4a2,2,0,0,0,2.5,2.51l11.68-3.67a5,5,0,0,0,2-1.23L34.54,12.76A5,5,0,0,0,34.54,5.7ZM28.17,7.82l-17,17A2,2,0,0,1,8.37,22l17-17a2,2,0,1,1,2.83,2.83Z"/>
    <path class="a" d="M33.5,48H2.5a2.5,2.5,0,0,1,0-5h31a2.5,2.5,0,0,1,0,5Z"/>
  </g>
</svg>
